<svg id="Livello_1" data-name="Livello 1" xmlns="http://www.w3.org/2000/svg" viewBox="0 0 182.00637 179.75938"><defs><style>.cls-1{fill:#333;}</style></defs><path class="cls-1" d="M151.38577,47.407a3.00035,3.00035,0,0,0-2.37891-1.17187H43.54226L40.26077,32.70293a2.99895,2.99895,0,0,0-2.915-2.293H16.18655a3,3,0,0,0,0,6H34.98636L56.334,124.44219a2.999,2.999,0,0,0,2.915,2.293h69.91406a3,3,0,0,0,0-6H61.60843l-3.87622-15.98438h77.28637a3.0012,3.0012,0,0,0,2.89942-2.22754l13.9873-52.51562A3.00107,3.00107,0,0,0,151.38577,47.407ZM132.71292,98.75078H56.27725L44.99734,52.23516h100.1062Z"/><circle class="cls-1" cx="67.93838" cy="140.63698" r="8.71248"/><path class="cls-1" d="M120.558,131.92449a8.71247,8.71247,0,1,0,8.71253,8.71252A8.71254,8.71254,0,0,0,120.558,131.92449Z"/></svg>