<?xml version="1.0" encoding="UTF-8"?><svg id="a" xmlns="http://www.w3.org/2000/svg" viewBox="0 0 182.01 179.76"><defs><style>.b{fill:#333;fill-rule:evenodd;}</style></defs><path class="b" d="M73.68,50.72c-14.25,14.16-28.48,28.31-42.68,42.51l-.38,.39c-15.27-15.74-15.1-40.86,.44-56.4,15.58-15.58,40.79-15.7,56.52-.32l3.43,3.43,11.39,11.38c3.82,3.82,3.82,10.03,0,13.86-3.83,3.82-10.04,3.82-13.86,0-4.95-4.95-9.91-9.9-14.85-14.84h0Zm15.59,84.33l8.91,8.91c5.68,5.68-2.97,14.09-8.53,8.53l-8.91-8.91c-5.57-5.58,2.97-14.09,8.53-8.53h0Zm12.07-12.08l8.92,8.91c3.78,3.79,1.09,10.3-4.27,10.3-1.54,0-3.08-.59-4.26-1.77l-8.92-8.91c-5.64-5.64,2.91-14.12,8.53-8.53h0Zm12.08-12.08l8.92,8.92c3.78,3.78,1.09,10.3-4.27,10.3-1.54,0-3.09-.6-4.26-1.77l-8.92-8.92c-5.67-5.67,2.97-14.09,8.53-8.53h0Zm12.46,5.36l-8.97-8.97c-4.98-5.73,2.82-14.24,8.59-8.47l8.95,8.95c1.15,1.16,1.73,2.7,1.73,4.23,0,5.35-6.5,8.04-10.3,4.26h0Zm-23.88-9.59c-9.57,9.62-19.14,19.24-28.74,28.84-7.36,7.35-16.56-4.52-10.54-10.53l24.5-24.5,5.37-5.37c2.27-2.27-1.28-5.82-3.55-3.55l-5.37,5.38-17.93,17.93-6.55,6.55c-1.46,1.45-3.37,2.18-5.27,2.18-6.62,0-9.95-8.04-5.26-12.72l29.86-29.87c2.27-2.27-1.28-5.83-3.55-3.55l-29.86,29.87c-1.46,1.45-3.37,2.18-5.27,2.18-6.62,0-9.95-8.04-5.26-12.72,13.01-13.02,26.04-26,39.1-38.98l11.32,11.32c5.79,5.79,15.17,5.79,20.96,0,5.8-5.8,5.8-15.18,0-20.97l-11.38-11.37c15.72-15.22,40.81-15.14,56.39,.44,15.7,15.7,15.7,41.15,0,56.83l-11.68,11.68-1.3-1.57-8.91-8.91c-7.25-7.25-19.81-1.38-18.83,8.9-4.36-.42-6.53,.79-8.23,2.5h0Z"/></svg>