<svg id="Livello_1" data-name="Livello 1" xmlns="http://www.w3.org/2000/svg" viewBox="0 0 182.00637 179.75938"><defs><style>.cls-1{fill:#333;}</style></defs><path class="cls-1" d="M91.0027,155.11748a6.84456,6.84456,0,0,1-4.44043-1.63965c-11.65918-9.918-44.94043-45.7998-44.94043-79.4541a49.38135,49.38135,0,1,1,98.76269,0c0,33.65235-33.28125,69.53613-44.94043,79.45313A6.841,6.841,0,0,1,91.0027,155.11748Zm0-124.47558A43.43066,43.43066,0,0,0,47.62184,74.02373c0,31.92871,33.78125,67.18848,42.82715,74.88281a.86314.86314,0,0,0,1.10839-.001c9.0459-7.69434,42.82715-42.95508,42.82715-74.88184A43.43087,43.43087,0,0,0,91.0027,30.6419Z"/><path class="cls-1" d="M91.0027,106.33233A30.87793,30.87793,0,1,1,121.88063,75.4544,30.91262,30.91262,0,0,1,91.0027,106.33233Zm0-55.75586A24.87793,24.87793,0,1,0,115.88063,75.4544,24.90605,24.90605,0,0,0,91.0027,50.57647Z"/></svg>